<svg width="65" height="65" viewBox="0 0 65 65" fill="none" xmlns="http://www.w3.org/2000/svg">
<g clip-path="url(#clip0_92_124)">
<path d="M56.4417 12.4854C55.0584 11.1015 53.416 10.0036 51.6083 9.2546C49.8006 8.50558 47.863 8.12006 45.9063 8.12006C43.9496 8.12006 42.012 8.50558 40.2043 9.2546C38.3966 10.0036 36.7542 11.1015 35.3709 12.4854L32.5 15.3563L29.6292 12.4854C26.835 9.69125 23.0453 8.1215 19.0938 8.1215C15.1422 8.1215 11.3525 9.69125 8.55837 12.4854C5.7642 15.2796 4.19446 19.0693 4.19446 23.0208C4.19446 26.9724 5.7642 30.7621 8.55837 33.5562L32.5 57.4979L56.4417 33.5562C57.8256 32.173 58.9235 30.5305 59.6725 28.7228C60.4215 26.9151 60.8071 24.9776 60.8071 23.0208C60.8071 21.0641 60.4215 19.1265 59.6725 17.3188C58.9235 15.5111 57.8256 13.8687 56.4417 12.4854Z" fill="white" stroke="#1ED760" stroke-width="6" stroke-linecap="round" stroke-linejoin="round"/>
</g>
<defs>
<clipPath id="clip0_92_124">
<rect width="65" height="65" fill="white"/>
</clipPath>
</defs>
</svg>
